<?xml version="1.0" standalone="no"?>
<!DOCTYPE svg PUBLIC "-//W3C//DTD SVG 20010904//EN"
 "http://www.w3.org/TR/2001/REC-SVG-20010904/DTD/svg10.dtd">
<svg version="1.0" xmlns="http://www.w3.org/2000/svg"
 width="540.000000pt" height="540.000000pt" viewBox="0 0 540.000000 540.000000"
 preserveAspectRatio="xMidYMid meet">
<metadata>
Created by potrace 1.14, written by Peter Selinger 2001-2017
</metadata>
<g transform="translate(0.000000,540.000000) scale(0.100000,-0.100000)"
fill="#000000" stroke="none">
<path d="M4085 3821 c6 -11 4 -13 -8 -8 -10 3 -17 2 -17 -4 0 -6 -4 -7 -10 -4
-5 3 -10 1 -10 -5 0 -6 -5 -8 -10 -5 -6 4 -7 12 -4 18 4 7 3 8 -2 4 -5 -5 -9
-14 -9 -20 0 -7 -10 -12 -22 -11 -12 0 -20 -4 -17 -8 7 -11 -27 -38 -39 -31
-4 2 -6 1 -5 -4 4 -13 -26 -53 -39 -53 -7 0 -18 -10 -24 -22 -16 -31 -45 -58
-54 -50 -4 4 -5 2 -3 -4 2 -6 -12 -26 -29 -43 -18 -17 -33 -34 -33 -37 0 -3
-9 -19 -21 -35 -18 -26 -23 -28 -37 -17 -15 11 -15 11 -5 -3 11 -13 9 -20 -7
-39 -11 -13 -20 -29 -20 -37 0 -8 -4 -12 -9 -9 -5 3 -11 -4 -15 -17 -3 -12
-13 -31 -23 -42 -22 -25 -58 -78 -56 -85 0 -3 -12 -18 -28 -34 -23 -24 -27
-26 -25 -10 2 10 9 18 16 16 6 -1 9 2 5 8 -8 13 -8 13 -35 -10 -15 -13 -18
-20 -9 -21 9 0 7 -3 -4 -8 -10 -4 -17 -9 -15 -12 2 -3 -4 -14 -12 -24 -12 -15
-12 -17 -1 -10 10 6 12 4 7 -4 -5 -7 -14 -10 -20 -8 -9 4 -11 -2 -9 -17 3 -16
-3 -29 -21 -43 -14 -11 -23 -23 -20 -26 15 -15 -79 -19 -103 -4 -6 4 -14 3
-18 -2 -3 -7 -15 -7 -29 -1 -13 5 -41 9 -62 8 -68 0 -115 5 -120 14 -3 4 -11
8 -17 8 -7 0 -6 -4 3 -10 11 -7 1 -10 -35 -10 -52 0 -150 -7 -150 -11 0 -1
-10 -3 -22 -4 -13 -1 -23 3 -23 9 0 7 -3 7 -8 1 -11 -15 -32 -17 -32 -2 0 9
-2 9 -9 -1 -8 -13 -54 -17 -103 -9 -16 2 -28 0 -28 -6 0 -5 -8 -3 -17 4 -12
10 -15 11 -9 1 6 -9 1 -11 -18 -8 -14 3 -28 0 -31 -5 -9 -13 -65 -11 -65 2 0
8 -4 8 -13 0 -8 -6 -39 -12 -69 -14 -31 -3 -61 -7 -67 -11 -6 -4 -11 -1 -11 6
0 9 -3 9 -10 -2 -8 -12 -10 -12 -10 -1 0 11 -4 11 -18 -2 -13 -12 -21 -14 -29
-6 -8 8 -13 8 -17 0 -10 -16 -39 -14 -30 2 4 6 -2 4 -13 -6 -11 -9 -23 -14
-26 -10 -4 3 -7 1 -7 -5 0 -7 -5 -12 -11 -12 -6 0 -9 7 -6 15 5 11 -3 9 -29
-6 -20 -11 -32 -14 -28 -7 6 10 4 11 -7 1 -7 -7 -29 -13 -49 -13 -34 0 -38 4
-65 58 -16 31 -28 60 -27 65 1 4 -2 7 -8 7 -5 0 -10 9 -10 20 0 11 -9 25 -20
32 -11 7 -20 21 -20 30 0 10 -4 18 -10 18 -5 0 -10 8 -10 18 0 9 -14 33 -30
52 -16 19 -30 41 -30 48 0 6 -3 12 -7 12 -5 0 -26 27 -47 60 -22 33 -44 60
-48 60 -5 0 -6 5 -3 10 3 6 2 10 -3 10 -5 0 -15 14 -22 30 -7 17 -16 30 -21
30 -4 0 -11 9 -14 20 -4 11 -19 32 -33 47 -15 14 -20 22 -12 17 8 -4 0 6 -17
23 -18 17 -33 36 -33 42 0 6 -6 11 -12 12 -7 0 -28 18 -46 41 -17 22 -32 37
-32 33 0 -5 -11 4 -25 19 -14 15 -29 25 -34 22 -5 -4 -11 -1 -13 4 -6 18 -58
22 -64 5 -3 -8 -11 -12 -17 -8 -7 4 -8 0 -3 -13 4 -10 4 -15 0 -11 -9 9 -35
-13 -28 -24 3 -5 1 -9 -4 -9 -10 0 -38 -60 -34 -72 1 -5 -3 -8 -9 -8 -6 0 -9
-7 -5 -15 3 -8 2 -15 -3 -15 -4 0 -8 -6 -9 -12 0 -7 -3 -42 -7 -78 -4 -36 -7
-75 -8 -87 -1 -13 -6 -23 -12 -23 -5 0 -3 -5 5 -10 8 -5 10 -10 5 -10 -6 0
-11 -8 -11 -17 -1 -50 -15 -137 -24 -148 -6 -8 -5 -16 3 -25 10 -10 8 -12 -7
-6 -17 6 -17 5 -5 -10 16 -19 13 -55 -5 -66 -7 -5 -6 -8 4 -8 13 0 13 -1 0
-10 -13 -9 -13 -10 0 -10 12 0 12 -2 1 -9 -10 -7 -11 -13 -2 -30 9 -16 9 -21
-1 -21 -10 0 -14 -25 -15 -104 0 -57 -3 -108 -7 -114 -3 -6 -2 -13 3 -16 10
-7 9 -25 -2 -43 -5 -7 -4 -13 0 -13 5 0 8 -57 7 -127 -1 -71 2 -133 7 -140 6
-6 6 -14 1 -17 -11 -6 -9 -36 3 -55 5 -10 4 -12 -3 -7 -9 5 -11 -6 -8 -38 2
-26 -1 -46 -6 -46 -5 0 -4 -9 2 -20 7 -12 16 -18 23 -13 7 4 6 -1 -2 -11 -14
-17 -23 -88 -10 -80 4 2 9 -3 13 -11 3 -8 1 -15 -5 -15 -6 0 -8 -7 -5 -16 5
-12 2 -15 -10 -10 -8 3 -18 6 -20 6 -3 0 -2 5 2 12 4 7 3 8 -5 4 -6 -4 -9 -12
-6 -17 4 -5 1 -9 -4 -9 -6 0 -11 4 -11 9 0 5 -12 6 -27 2 -16 -4 -45 -4 -65
-1 -21 4 -35 3 -32 -1 3 -5 -9 -6 -25 -3 -17 4 -37 2 -44 -4 -7 -6 -26 -13
-42 -16 -17 -2 -30 -5 -30 -6 0 -1 -13 -4 -30 -6 -16 -3 -35 -10 -42 -16 -7
-5 -17 -7 -23 -3 -5 3 -10 1 -10 -5 0 -6 -4 -9 -9 -5 -5 3 -12 1 -16 -4 -3 -6
-13 -7 -22 -4 -11 4 -14 3 -9 -5 4 -7 2 -13 -3 -13 -12 -2 -26 -5 -38 -9 -5
-1 -11 -2 -15 -1 -5 0 -8 -5 -8 -13 0 -8 -9 -12 -25 -11 -14 2 -25 -2 -25 -8
0 -5 -3 -7 -7 -4 -3 4 -12 -1 -20 -11 -8 -9 -12 -12 -9 -7 2 6 -4 11 -14 11
-11 0 -16 -5 -12 -15 3 -9 1 -12 -6 -7 -7 4 -12 2 -12 -3 0 -6 -9 -11 -19 -11
-10 0 -22 -7 -25 -16 -4 -9 -13 -14 -21 -10 -9 3 -15 0 -15 -10 0 -8 -5 -12
-10 -9 -6 3 -13 0 -16 -9 -3 -8 -12 -12 -19 -10 -7 3 -16 0 -20 -5 -3 -6 -11
-9 -16 -6 -5 3 -6 -2 -2 -11 4 -11 3 -15 -5 -10 -6 3 -13 2 -16 -3 -12 -19 17
-24 31 -6 7 11 13 14 13 7 0 -7 -9 -17 -20 -24 -11 -7 -20 -18 -20 -25 0 -7
-4 -13 -10 -13 -11 0 -9 22 2 30 4 3 -2 11 -12 18 -16 10 -20 10 -20 -2 0 -18
-27 -28 -34 -13 -3 7 -4 3 -3 -8 2 -16 -3 -20 -23 -18 -14 1 -19 -1 -12 -3 6
-3 12 -10 12 -15 0 -6 -4 -7 -10 -4 -6 4 -7 -1 -3 -11 4 -12 3 -15 -5 -10 -7
4 -12 1 -12 -8 0 -9 -5 -16 -11 -16 -5 0 -7 -4 -4 -10 3 -5 1 -10 -4 -10 -6 0
-11 -6 -11 -12 1 -7 10 -2 20 11 11 13 20 21 20 18 0 -3 16 10 36 29 39 36 49
40 59 24 8 -13 35 -1 35 16 0 8 4 14 10 14 13 0 50 37 50 51 0 5 5 7 10 4 6
-4 8 -12 5 -18 -3 -7 2 -2 11 11 9 12 21 22 26 22 7 0 6 -5 -1 -13 -7 -9 -7
-17 -1 -23 6 -6 3 -16 -10 -27 -11 -9 -20 -12 -20 -7 0 6 7 13 15 16 8 4 13
10 10 14 -8 13 -56 -13 -50 -27 2 -7 1 -12 -3 -12 -18 3 -33 -2 -29 -8 5 -9
-48 -64 -60 -63 -4 1 -9 -4 -12 -11 -2 -7 1 -9 8 -5 7 5 9 1 5 -8 -8 -21 0
-20 22 2 18 17 58 26 48 10 -3 -4 -9 -6 -14 -3 -4 3 -10 -2 -14 -10 -3 -8 -12
-15 -21 -15 -8 0 -14 -3 -14 -7 3 -20 -2 -33 -12 -33 -8 0 -8 4 0 14 8 10 9
16 1 21 -5 3 -10 1 -10 -6 0 -8 -4 -8 -15 1 -12 10 -18 10 -30 0 -9 -7 -15 -8
-15 -2 0 5 7 13 16 16 8 3 13 10 10 15 -3 5 1 12 10 15 8 3 12 11 9 16 -4 6
-3 10 2 9 19 -3 33 2 33 12 0 5 -5 7 -12 3 -7 -5 -8 -3 -3 6 5 8 3 11 -6 8 -8
-3 -20 -15 -26 -29 -7 -13 -13 -20 -13 -15 0 23 -71 -70 -71 -94 0 -3 -8 -14
-17 -24 -11 -12 -12 -16 -3 -11 11 6 12 5 5 -6 -5 -8 -9 -25 -9 -39 0 -15 -5
-24 -13 -22 -8 1 -11 -2 -7 -8 3 -6 11 -8 16 -4 6 3 8 -5 5 -20 -3 -17 0 -26
8 -26 8 0 12 15 10 42 0 24 4 57 11 73 6 17 10 36 8 43 -3 7 3 12 14 12 10 0
14 -3 8 -8 -10 -6 -11 -13 -6 -39 0 -4 13 6 29 22 15 16 26 33 24 38 -1 5 2 6
8 2 14 -9 13 -11 -15 -40 -14 -14 -21 -25 -15 -25 6 0 8 -5 5 -10 -4 -6 -11
-7 -17 -4 -7 5 -9 0 -6 -14 4 -13 0 -26 -10 -34 -12 -10 -14 -10 -8 0 4 6 2
12 -3 12 -13 0 -14 -10 -1 -30 5 -9 5 -19 -2 -27 -5 -7 -8 -20 -4 -28 3 -8 1
-15 -3 -15 -5 0 -12 6 -14 13 -3 6 -6 -4 -6 -24 -1 -20 -4 -39 -8 -43 -15 -15
-11 -38 5 -32 10 3 8 -1 -5 -10 -21 -15 -21 -18 -8 -44 10 -20 11 -30 2 -39
-8 -8 -7 -11 3 -11 12 0 13 -2 1 -9 -10 -7 -11 -13 -2 -30 7 -12 16 -19 21
-16 11 7 11 105 0 105 -14 0 -5 35 14 52 13 12 15 18 6 18 -7 0 -10 3 -7 6 3
4 2 15 -4 25 -8 15 -6 17 8 12 10 -3 15 -3 11 2 -4 4 -3 14 3 21 7 8 7 14 -1
19 -5 3 -10 12 -10 18 0 8 3 8 9 -2 11 -16 20 -3 23 33 3 33 18 34 18 1 0 -28
12 -32 30 -10 7 8 9 15 5 15 -4 0 -2 7 5 15 6 8 9 19 5 25 -3 5 -1 10 4 10 6
0 11 7 11 16 0 9 -5 12 -13 8 -6 -4 -2 3 11 15 12 12 22 27 22 34 0 13 53 78
107 133 17 18 29 35 25 39 -3 3 1 3 11 -1 9 -3 17 -2 17 4 0 5 17 22 37 38 20
15 33 21 28 13 -5 -9 -1 -7 12 4 11 9 25 17 32 17 7 0 9 5 5 13 -4 6 3 3 15
-8 16 -14 22 -15 19 -5 -2 9 4 14 14 14 10 -1 17 1 16 5 -2 20 3 31 12 26 6
-4 17 -1 25 5 8 7 24 10 34 7 12 -3 22 1 25 10 3 8 10 11 16 8 5 -3 10 0 10 7
0 8 9 14 20 14 11 0 20 -4 20 -9 0 -5 8 -3 17 4 15 12 16 12 8 -1 -8 -13 -7
-13 9 0 19 15 30 18 88 25 24 3 38 1 38 -6 0 -6 -7 -9 -15 -5 -8 3 -15 2 -15
-3 0 -5 -14 -11 -31 -15 -17 -3 -28 -10 -25 -14 3 -5 -6 -8 -19 -6 -14 1 -25
-2 -25 -8 0 -6 -7 -8 -15 -4 -8 3 -19 -2 -24 -12 -6 -9 -11 -13 -11 -8 0 5 -7
3 -15 -4 -8 -7 -15 -9 -15 -6 0 4 -12 -5 -27 -19 -16 -14 -40 -33 -55 -42 -14
-9 -32 -27 -39 -40 -7 -12 -19 -25 -28 -28 -9 -3 -27 -21 -41 -39 -14 -19 -28
-32 -32 -29 -5 2 -8 0 -8 -5 0 -5 -13 -22 -28 -39 -16 -16 -27 -36 -25 -43 2
-8 -2 -6 -9 5 -13 20 -14 19 -40 -7 -15 -16 -24 -28 -20 -28 3 0 -4 -9 -16
-21 -12 -11 -20 -24 -17 -30 4 -5 2 -9 -2 -9 -11 0 -49 -81 -45 -94 2 -5 -4
-16 -12 -25 -14 -15 -13 -17 7 -18 17 -2 19 0 7 7 -13 9 -7 14 12 11 4 0 5 8
3 18 -2 11 3 22 12 25 8 4 13 13 10 20 -3 8 1 20 8 26 8 7 13 16 10 20 -3 5
-1 11 5 15 6 4 8 11 5 16 -3 5 1 6 10 3 9 -4 15 -3 14 2 -4 15 20 64 31 64 15
0 12 -16 -6 -34 -8 -9 -16 -25 -17 -35 0 -11 -4 -18 -8 -15 -4 2 -10 0 -13 -5
-8 -13 22 -7 36 7 7 7 9 12 5 12 -3 0 9 15 28 33 19 19 31 38 27 42 -4 5 -1 5
6 1 11 -6 10 -12 -2 -32 -9 -13 -16 -31 -16 -40 0 -10 -6 -14 -14 -11 -10 4
-12 0 -9 -14 3 -12 0 -19 -8 -19 -11 0 -11 -2 1 -10 8 -5 10 -10 3 -10 -9 0
-32 -45 -38 -75 -1 -5 5 -21 13 -35 14 -23 14 -24 -1 -11 -14 11 -17 11 -18 0
-1 -8 -1 -17 0 -21 0 -5 -5 -8 -12 -9 -6 0 -3 -4 8 -9 18 -8 19 -9 1 -9 -12
-1 -16 -6 -13 -16 4 -8 2 -17 -4 -21 -15 -9 -8 -117 8 -133 12 -11 14 -9 10
18 -3 18 0 37 7 44 6 6 12 21 12 32 1 65 17 100 45 97 4 -1 4 9 1 21 -5 20 -4
21 14 7 18 -14 18 -14 5 3 -9 11 -11 21 -5 25 5 4 10 18 12 32 1 13 8 28 15
32 6 4 8 8 4 8 -5 0 1 17 13 37 12 21 24 47 26 58 2 11 8 21 14 23 5 2 10 10
10 18 0 9 4 12 10 9 5 -3 10 1 10 9 0 9 5 16 10 16 6 0 15 11 22 25 6 13 14
22 19 20 13 -9 21 15 9 30 -8 10 -5 19 14 38 14 14 22 28 18 32 -4 4 8 5 26 3
20 -3 29 -1 23 5 -5 5 -1 17 11 29 11 11 22 17 25 14 3 -3 13 3 22 13 9 10 31
26 49 35 17 9 32 22 32 28 0 6 3 9 6 5 4 -3 19 0 35 9 16 8 29 12 29 8 0 -4 6
-2 13 4 14 12 30 4 35 -17 2 -8 -3 -11 -12 -8 -9 4 -18 2 -22 -4 -3 -6 -13 -8
-21 -5 -8 3 -11 2 -8 -3 3 -5 0 -13 -6 -17 -8 -4 -7 -9 2 -16 10 -7 8 -8 -9
-5 -12 3 -20 1 -17 -3 3 -5 -4 -14 -15 -20 -11 -6 -20 -17 -20 -25 0 -10 -6
-12 -17 -8 -16 6 -17 5 -3 -12 8 -10 10 -16 4 -12 -7 4 -15 0 -18 -8 -3 -8
-11 -14 -18 -13 -7 2 -12 -5 -12 -14 1 -10 -3 -15 -8 -12 -15 9 -47 -26 -43
-47 3 -12 0 -17 -7 -13 -6 4 -9 1 -6 -7 3 -8 -11 -29 -29 -47 -30 -29 -33 -35
-21 -49 11 -14 11 -15 -1 -8 -11 6 -13 4 -8 -8 4 -10 2 -17 -4 -17 -7 0 -9
-11 -7 -25 3 -13 2 -23 -1 -20 -4 2 -13 0 -21 -6 -10 -6 -11 -9 -3 -9 9 0 10
-7 2 -27 -6 -17 -6 -28 0 -32 6 -4 6 -12 1 -21 -6 -8 -10 -27 -10 -42 0 -16
-4 -28 -8 -28 -4 0 -9 -10 -10 -22 -1 -13 -5 -45 -8 -73 -3 -27 -7 -58 -7 -67
-1 -10 -5 -18 -10 -18 -5 0 -3 -8 4 -17 12 -14 12 -15 1 -9 -11 7 -12 4 -3
-11 6 -11 7 -24 3 -28 -4 -4 2 -2 14 5 12 7 20 22 20 34 -1 12 1 36 5 53 5 24
4 31 -5 26 -8 -5 -8 -3 1 8 6 8 11 16 11 19 1 3 5 17 11 31 5 15 8 39 7 54 -2
15 2 29 10 32 7 2 10 12 7 20 -4 9 -2 14 3 10 6 -3 11 4 11 15 1 11 10 26 20
34 10 7 14 14 8 14 -5 0 -3 5 5 10 13 8 13 10 0 10 -9 0 -7 5 8 16 19 13 21
18 10 32 -10 12 -10 14 0 8 7 -4 15 -1 18 8 3 9 11 13 17 9 5 -3 7 -1 4 4 -4
6 2 18 13 28 11 10 20 24 20 32 0 7 4 13 8 13 5 0 15 11 22 25 16 30 25 32 27
5 1 -11 -2 -18 -7 -15 -4 3 -10 -2 -14 -10 -3 -8 0 -17 6 -21 7 -5 8 -2 3 6
-6 9 -4 11 4 6 13 -9 6 -21 -12 -21 -5 0 -12 -6 -15 -14 -3 -9 0 -11 9 -5 12
7 12 5 1 -9 -8 -9 -10 -22 -6 -28 5 -9 2 -10 -11 -5 -15 5 -16 4 -6 -8 9 -10
9 -16 1 -21 -6 -4 -10 -14 -9 -23 3 -30 -1 -37 -11 -22 -7 12 -9 10 -7 -8 0
-12 5 -22 10 -22 4 0 5 -5 2 -11 -4 -6 2 -5 14 3 12 7 17 14 12 16 -5 2 -6 15
-1 33 5 16 7 29 4 29 -2 0 4 12 13 27 10 15 16 27 14 28 -8 0 11 45 19 45 5 0
6 7 3 17 -4 10 -2 14 4 10 7 -5 9 0 6 13 -3 11 2 26 11 35 9 9 14 21 11 26 -4
5 -2 9 3 9 5 0 12 9 15 20 3 13 10 18 21 14 18 -7 22 -24 5 -24 -6 0 -9 -6 -6
-14 3 -8 -1 -17 -9 -20 -9 -3 -12 -11 -9 -16 4 -6 1 -19 -7 -28 -11 -15 -11
-16 3 -4 14 10 18 10 23 -3 3 -9 2 -13 -3 -10 -5 3 -12 1 -16 -5 -4 -6 -11 -7
-17 -4 -7 4 -8 2 -4 -4 4 -6 14 -8 24 -5 15 6 15 5 4 -10 -8 -9 -10 -22 -6
-29 6 -11 5 -11 -8 0 -13 10 -18 9 -29 -5 -11 -14 -11 -15 0 -9 9 6 8 1 -3
-16 -9 -14 -13 -28 -9 -33 5 -4 2 -4 -6 0 -11 6 -13 4 -8 -8 4 -12 1 -17 -11
-18 -10 0 -12 -3 -4 -6 6 -2 12 -11 12 -19 0 -10 -5 -12 -12 -8 -9 6 -9 3 0
-9 8 -9 10 -22 6 -28 -4 -7 -7 -27 -6 -46 1 -19 -3 -31 -8 -28 -5 3 -8 -3 -8
-12 0 -10 -1 -22 -2 -28 -6 -17 11 -75 20 -70 5 3 12 0 16 -6 4 -8 3 -9 -4 -5
-7 4 -13 2 -13 -3 -1 -6 -2 -17 -3 -23 -1 -7 6 -21 16 -31 10 -10 18 -24 18
-32 0 -8 4 -15 10 -15 5 0 9 -6 7 -12 -1 -7 4 -12 10 -11 7 2 12 0 12 -5 -3
-19 2 -33 11 -27 5 3 9 17 8 30 -1 13 -4 22 -7 20 -8 -9 -51 97 -53 133 -1 6
-4 12 -7 12 -3 0 -6 16 -6 35 0 19 4 35 8 35 4 0 3 8 -2 18 -7 13 -6 23 2 32
10 10 9 11 -3 6 -13 -6 -13 -6 0 6 9 7 15 20 15 28 -1 8 2 22 6 31 5 9 3 21
-4 28 -9 10 -9 12 3 9 10 -2 14 3 12 15 -2 9 1 17 6 17 5 0 14 11 20 25 6 14
16 25 22 25 7 0 7 -6 0 -21 -9 -15 -8 -24 2 -37 11 -13 11 -14 -1 -7 -11 6
-13 4 -8 -9 5 -14 3 -17 -7 -13 -12 5 -13 1 -6 -19 6 -15 6 -32 1 -42 -5 -9
-7 -27 -5 -40 3 -15 0 -21 -7 -16 -8 4 -8 1 -1 -13 6 -11 7 -25 2 -33 -5 -8
-5 -21 -1 -29 4 -9 7 -23 6 -31 -1 -8 3 -20 7 -27 5 -6 5 -14 -1 -17 -11 -7 5
-55 22 -67 4 -3 9 -15 10 -27 0 -11 5 -18 11 -15 5 4 7 -1 3 -10 -4 -11 0 -15
12 -14 23 1 16 37 -8 37 -9 0 -12 3 -6 8 15 10 13 41 -3 50 -7 5 -11 23 -9 43
2 19 0 46 -4 62 -5 19 -4 25 3 21 7 -5 9 0 5 15 -3 14 0 24 8 27 7 3 12 13 10
22 -1 9 1 22 6 27 4 6 10 22 12 35 3 14 12 44 20 68 10 29 11 42 3 42 -6 0 -5
4 3 9 12 8 12 12 2 25 -15 18 -33 12 -25 -8 3 -8 1 -17 -5 -20 -5 -3 -8 -21
-6 -39 3 -20 1 -27 -4 -19 -11 18 -18 -1 -16 -40 1 -16 -2 -25 -8 -21 -6 4 -8
0 -4 -10 4 -11 2 -14 -9 -10 -17 6 -18 19 -4 28 8 5 7 11 -1 21 -9 12 -9 13 3
9 8 -3 15 0 15 7 0 7 4 21 8 31 4 10 3 17 -4 17 -6 0 -11 5 -11 11 0 5 5 7 10
4 6 -3 11 3 11 14 2 33 4 39 11 47 5 4 8 14 8 23 0 9 7 24 14 33 12 16 13 15
12 -12 -1 -16 -5 -30 -10 -30 -5 0 -1 -9 9 -20 23 -26 35 -26 28 0 -3 12 0 20
8 20 7 0 10 3 6 6 -3 3 3 22 14 41 11 20 18 38 15 41 -3 3 5 15 17 26 13 12
21 28 19 35 -3 10 2 12 17 8 11 -3 24 -1 27 4 3 5 2 9 -3 8 -19 -3 -33 2 -33
13 0 6 3 8 6 5 4 -3 20 13 37 36 37 52 63 78 71 70 3 -4 6 1 6 10 0 9 -5 17
-12 17 -8 0 -9 3 -2 10 11 11 44 4 44 -10 0 -14 36 -47 67 -60 17 -8 29 -18
27 -22 -3 -4 0 -8 5 -8 10 0 36 -19 67 -48 8 -7 14 -11 14 -7 0 3 6 1 13 -5
44 -38 62 -49 124 -80 37 -19 71 -39 75 -45 5 -7 8 -7 8 0 0 6 4 4 9 -3 4 -7
14 -15 22 -16 8 -2 25 -8 39 -13 14 -6 28 -9 33 -6 4 2 7 -1 7 -6 0 -6 7 -11
15 -11 18 0 57 -20 67 -35 4 -5 8 -6 8 -2 0 5 12 -1 26 -12 15 -11 30 -18 35
-15 5 3 9 2 9 -3 0 -4 12 -9 27 -10 15 0 29 -6 31 -12 2 -6 13 -11 23 -11 11
0 34 -8 52 -17 18 -9 35 -16 40 -15 4 1 7 -3 7 -9 0 -5 4 -8 9 -4 5 3 12 1 16
-5 4 -6 10 -8 15 -5 5 3 11 1 15 -5 4 -6 11 -8 16 -5 5 3 25 2 44 -4 22 -6 35
-6 35 0 0 5 10 1 22 -11 12 -11 24 -20 27 -20 3 0 6 -16 6 -35 0 -19 -2 -35
-5 -35 -3 0 -5 -29 -5 -65 0 -51 3 -65 15 -65 10 0 11 -3 4 -8 -6 -4 -10 -19
-10 -34 1 -16 -2 -28 -7 -28 -4 0 -5 -5 -2 -10 10 -17 16 -62 8 -57 -5 3 -9
-20 -10 -51 -1 -32 -5 -68 -8 -82 -8 -34 -16 -122 -18 -200 -1 -36 -6 -68 -12
-72 -6 -5 -4 -12 5 -18 12 -8 12 -10 1 -10 -9 0 -11 -7 -8 -22 3 -12 2 -29 -3
-38 -5 -9 -5 -22 0 -30 5 -8 4 -22 -2 -34 -8 -15 -8 -21 1 -24 6 -2 11 -8 11
-13 0 -6 -4 -8 -8 -5 -4 2 -8 -4 -8 -15 0 -10 4 -19 8 -19 5 0 4 -10 -3 -21
-8 -15 -8 -19 0 -15 14 9 14 0 0 -26 -6 -11 -7 -18 -2 -15 5 4 10 0 10 -8 0
-8 -3 -12 -6 -11 -3 2 -6 -36 -7 -85 -1 -57 3 -86 9 -82 6 4 7 1 1 -8 -11 -18
-12 -40 -1 -63 5 -11 5 -16 0 -13 -5 3 -9 -3 -9 -13 0 -10 4 -16 8 -14 4 3 8
1 8 -5 0 -5 -5 -13 -10 -16 -8 -5 -8 -11 -1 -19 6 -7 8 -16 4 -19 -3 -4 159
-7 361 -7 l367 0 -5 30 c-2 19 0 30 7 30 7 0 6 5 -3 10 -8 5 -10 10 -5 10 6 0
4 4 -4 9 -10 7 -12 14 -5 23 6 7 9 27 9 43 -1 17 2 40 7 53 5 14 4 21 -1 17
-5 -3 -12 -1 -15 4 -4 5 -2 12 2 15 5 3 9 21 10 41 1 20 -3 33 -8 30 -10 -6
-7 35 4 53 4 8 2 10 -7 6 -10 -3 -14 3 -13 22 1 15 7 29 14 32 7 2 12 8 12 13
0 6 -4 8 -9 5 -5 -3 -11 5 -13 19 -3 13 -2 23 1 21 4 -3 5 14 2 37 -2 23 -8
45 -13 48 -7 4 -6 14 1 27 8 15 8 23 0 28 -8 4 -7 9 2 15 10 6 11 9 2 9 -9 0
-12 13 -10 40 2 22 -1 42 -7 44 -6 2 -2 5 9 6 18 1 18 2 -3 11 -14 5 -20 14
-16 20 4 6 7 33 7 60 0 27 4 49 9 49 5 0 4 8 -1 18 -7 14 -6 25 5 41 14 19 14
22 -1 27 -9 4 -14 13 -11 20 3 8 2 14 -2 14 -4 0 -8 21 -7 46 0 25 -3 48 -7
50 -3 2 -5 12 -4 22 2 9 -2 20 -8 24 -8 5 -7 8 2 8 6 0 12 5 12 11 0 5 -4 8
-8 5 -5 -3 -9 1 -9 9 0 8 4 12 9 9 4 -3 8 -1 8 4 0 6 -6 12 -13 15 -9 3 -13
22 -12 59 1 29 -2 61 -7 70 -5 11 -3 22 7 32 8 8 15 17 15 21 0 4 7 13 15 21
8 9 15 13 15 11 0 -3 23 3 50 14 28 10 50 16 50 11 0 -4 4 -2 8 3 6 9 59 32
87 39 6 1 20 7 31 14 12 6 24 8 28 5 3 -3 6 -1 6 6 0 7 4 10 9 6 5 -3 12 -1
16 5 3 5 12 10 20 10 14 0 115 59 115 67 0 2 -5 1 -12 -3 -7 -4 -8 -3 -4 5 4
6 12 8 18 5 13 -8 59 16 52 27 -3 5 2 6 10 3 8 -3 25 0 38 7 13 7 25 14 28 14
18 4 66 32 73 42 4 7 15 9 24 6 10 -4 14 -2 10 4 -6 10 37 29 56 24 5 -1 6 3
2 9 -3 5 -1 11 4 11 12 2 26 5 39 9 4 1 11 2 15 1 5 -1 6 3 2 9 -3 5 -1 11 4
11 22 3 26 5 53 23 15 10 32 15 38 11 5 -3 13 1 16 9 3 9 12 16 19 16 8 0 20
6 27 13 29 29 104 74 116 70 7 -3 12 -1 11 4 -3 19 2 34 10 28 5 -3 12 -1 16
5 4 6 13 5 25 -2 14 -9 22 -9 34 1 13 11 16 11 16 -3 0 -16 16 -20 54 -16 11
1 16 -3 11 -9 -3 -6 -11 -9 -16 -6 -5 4 -9 -2 -9 -11 0 -10 3 -15 6 -11 9 9
44 -25 37 -36 -3 -6 -1 -7 6 -3 6 4 9 12 6 17 -4 5 -1 9 4 9 11 0 15 -21 11
-49 -1 -9 5 -12 19 -8 12 3 19 1 16 -3 -5 -8 59 -52 84 -56 7 -1 19 -8 25 -15
8 -9 7 -10 -4 -4 -8 5 -12 4 -7 0 4 -5 20 -11 35 -12 18 -2 23 -1 14 5 -11 7
-10 10 3 16 26 9 42 7 25 -4 -13 -8 -12 -10 3 -10 12 0 17 8 17 25 0 14 -5 25
-11 25 -5 0 -8 -4 -5 -9 4 -5 -2 -8 -11 -7 -10 2 -20 0 -23 -5 -3 -4 -12 -4
-20 1 -13 8 -13 11 -1 22 10 10 12 10 7 1 -4 -7 -3 -13 2 -13 15 0 22 28 9 34
-8 3 -7 5 2 5 8 1 22 8 31 16 14 13 20 12 52 -5 20 -10 39 -16 42 -13 3 4 6 1
6 -6 0 -7 5 -9 10 -6 8 5 7 11 -1 21 -16 19 -1 18 18 -1 12 -12 18 -13 29 -4
12 10 13 9 8 -5 -3 -9 -1 -16 5 -16 6 0 11 -8 11 -17 0 -14 -3 -13 -20 5 -12
12 -26 22 -32 22 -6 0 7 -16 28 -35 21 -19 42 -35 47 -35 13 0 37 -27 30 -34
-4 -3 1 -6 9 -6 9 0 19 -7 22 -16 3 -8 10 -12 16 -9 6 4 7 -1 3 -11 -4 -11 -2
-15 4 -11 12 8 93 -78 93 -98 0 -8 5 -15 11 -15 5 0 7 -4 4 -10 -3 -5 1 -10 9
-10 18 0 21 -16 6 -25 -6 -3 -13 0 -16 8 -6 17 -34 18 -34 2 0 -6 7 -12 15
-13 8 -1 22 -3 30 -4 8 -1 15 -6 15 -12 0 -6 4 -5 9 3 6 9 11 10 15 2 9 -14
-19 -25 -36 -15 -11 6 -2 -6 31 -46 2 -3 1 3 -2 13 -4 11 -1 20 7 23 8 3 16
14 19 24 3 12 0 17 -8 14 -7 -3 -15 7 -19 26 -3 19 -10 29 -17 24 -8 -4 -8 0
0 15 12 21 22 28 20 14 -3 -18 1 -33 9 -31 13 4 52 -13 48 -21 -3 -4 1 -8 8
-8 7 0 13 6 13 13 0 7 -3 13 -6 12 -17 -2 -31 3 -30 10 3 20 -3 31 -21 37 -11
3 -20 13 -20 21 0 9 -5 12 -12 8 -8 -5 -9 -2 -5 9 4 11 1 17 -8 17 -8 0 -15 5
-15 11 0 5 -4 7 -10 4 -5 -3 -10 -1 -10 6 0 16 -87 99 -103 99 -7 0 -20 11
-31 24 -11 16 -24 22 -34 19 -10 -4 -13 -2 -8 5 4 7 3 12 -3 12 -5 0 -12 -6
-15 -12 -3 -7 -4 -4 -1 7 3 15 -5 26 -30 43 -19 12 -39 22 -45 22 -5 0 -10 8
-10 17 0 15 -2 14 -14 -2 -8 -11 -12 -24 -9 -29 4 -5 1 -6 -6 -2 -6 4 -9 11
-6 15 2 5 -2 17 -10 27 -13 17 -14 17 -9 1 5 -13 2 -16 -10 -11 -10 4 -15 13
-12 21 4 10 1 11 -12 4 -14 -7 -26 -5 -48 9 -16 11 -38 17 -49 14 -11 -3 -16
-2 -10 3 17 14 14 29 -5 29 -10 0 -17 -3 -15 -6 6 -10 -33 -5 -42 5 -5 4 -2 5
6 0 10 -5 12 -4 7 4 -4 6 -12 9 -17 6 -5 -4 -17 -1 -26 4 -17 10 -17 10 0 11
9 0 17 6 17 13 0 8 3 8 8 2 4 -6 21 -11 37 -12 17 -1 39 -3 50 -6 11 -2 25 0
32 5 9 7 11 4 8 -11 -2 -14 1 -18 11 -14 8 3 14 -1 14 -8 0 -7 3 -10 6 -6 3 3
16 2 28 -2 11 -5 30 -5 41 -1 15 5 27 0 48 -21 15 -16 32 -30 37 -30 6 -1 13
-2 18 -3 27 -5 141 -68 146 -82 4 -9 13 -14 21 -10 9 3 15 0 15 -9 0 -8 9 -19
21 -25 30 -17 61 -49 54 -59 -2 -5 2 -12 11 -15 8 -3 12 -11 8 -17 -4 -8 -3
-9 4 -5 8 5 12 -1 12 -14 0 -12 5 -18 10 -15 9 6 14 -8 11 -27 0 -5 3 -8 8 -8
17 0 21 33 6 50 -8 9 -15 22 -15 29 0 7 -4 9 -10 6 -5 -3 -10 1 -10 10 0 9 -6
23 -12 31 -27 33 -132 138 -123 124 7 -12 5 -12 -11 1 -10 9 -27 21 -38 26
-16 9 -17 11 -2 16 10 4 15 3 11 -3 -3 -6 1 -10 9 -10 9 0 13 6 10 14 -3 8 -1
17 4 20 6 3 12 -1 16 -9 3 -8 1 -17 -4 -20 -6 -4 -10 -11 -10 -18 0 -8 3 -8
12 1 7 7 18 12 25 12 14 0 86 -60 79 -67 -6 -6 45 -58 55 -56 4 2 6 -3 3 -11
-3 -7 2 -16 11 -20 9 -3 13 -10 10 -16 -4 -6 1 -7 11 -3 13 5 15 3 9 -7 -6 -9
-4 -11 5 -5 10 6 9 11 -5 22 -11 7 -16 13 -12 13 11 0 -19 54 -37 69 -9 8 -16
19 -16 25 0 6 7 3 14 -6 7 -10 16 -15 19 -11 4 3 7 -1 7 -11 0 -9 5 -14 10
-11 6 3 10 1 10 -5 0 -6 5 -8 10 -5 6 3 10 1 10 -4 0 -6 1 -14 2 -18 3 -13 52
-48 62 -45 4 2 5 -5 2 -15 -6 -14 -4 -15 5 -6 14 14 4 33 -17 33 -8 0 -12 5
-9 10 3 6 -1 13 -9 16 -9 3 -13 11 -9 18 3 6 3 8 -1 4 -11 -9 -48 30 -41 43 4
5 3 9 -2 8 -24 -4 -43 2 -37 13 5 7 3 8 -5 4 -8 -5 -14 0 -18 14 -4 16 -8 18
-14 8 -7 -10 -9 -8 -9 6 0 16 -3 17 -12 8 -18 -18 -27 -14 -21 11 3 16 2 18
-5 9 -7 -11 -11 -10 -16 4 -3 9 -9 14 -12 11 -4 -3 -14 2 -23 13 -20 24 -91
63 -91 50 0 -5 -9 -8 -20 -7 -11 1 -20 5 -20 10 0 5 6 7 13 4 8 -3 14 1 14 7
0 10 -7 11 -29 2 -23 -9 -31 -8 -38 4 -8 12 -10 12 -10 1 0 -8 -11 -2 -25 15
-14 16 -23 21 -19 12 3 -10 2 -18 -4 -18 -5 0 -13 7 -16 16 -3 8 -10 12 -16 9
-5 -3 -10 -1 -10 4 0 6 -7 11 -16 11 -8 0 -13 4 -10 8 2 4 -4 8 -14 8 -15 0
-17 -3 -7 -15 10 -12 9 -12 -10 -1 -33 21 -18 37 32 34 42 -3 61 9 33 19 -7 2
3 3 24 3 20 -1 34 -4 32 -8 -2 -4 0 -9 6 -13 5 -3 10 -1 10 5 0 6 5 8 12 4 6
-4 28 -7 47 -7 20 0 41 -4 47 -8 7 -6 17 -3 25 8 9 11 10 14 2 9 -7 -4 -13 -2
-13 3 0 14 17 14 25 1 8 -13 55 -13 55 -1 0 5 -6 11 -12 14 -7 2 2 4 20 3 17
0 32 -4 32 -8 0 -5 5 -7 12 -6 6 2 13 -5 14 -15 1 -11 0 -12 -3 -3 -3 11 -10
13 -28 6 -12 -5 -26 -6 -29 -3 -3 4 -6 1 -6 -5 0 -11 13 -16 33 -13 4 0 7 -6
7 -15 0 -13 3 -14 14 -5 11 10 17 8 25 -6 8 -14 10 -15 11 -3 0 10 3 11 8 3 4
-6 16 -13 27 -15 11 -1 26 -9 33 -15 7 -7 20 -13 28 -13 8 0 14 -5 14 -11 0
-5 5 -7 10 -4 6 3 10 0 10 -7 0 -9 3 -9 10 2 6 10 10 11 10 3 0 -7 10 -13 23
-13 18 0 19 -2 7 -11 -13 -9 -13 -10 0 -6 16 5 16 10 5 40 -7 16 -5 16 18 6
15 -7 24 -16 21 -20 -3 -5 -1 -9 4 -9 13 0 33 26 26 33 -3 3 4 3 15 0 17 -4
20 -2 15 11 -3 9 -9 16 -13 16 -10 1 -64 51 -59 55 2 3 13 -3 24 -13 10 -10
26 -21 36 -24 22 -9 17 20 -6 37 -9 7 -13 16 -8 19 6 3 13 -1 16 -10 3 -8 11
-12 16 -9 6 4 9 1 8 -7 -2 -7 2 -12 9 -11 6 2 21 -9 31 -22 11 -14 27 -25 35
-25 15 0 32 -27 28 -45 -2 -5 1 -7 5 -2 4 4 15 0 24 -8 14 -13 16 -12 17 5 1
12 -4 20 -13 20 -8 0 -12 5 -9 10 3 6 -1 13 -9 16 -9 3 -13 10 -10 15 3 5 -3
6 -13 2 -10 -3 -15 -3 -11 2 4 4 -13 26 -39 49 -26 23 -57 50 -68 62 -12 11
-27 18 -33 16 -7 -2 -12 1 -12 8 0 6 -4 9 -9 5 -5 -3 -12 4 -16 15 -4 11 -11
17 -17 14 -6 -4 -14 0 -19 7 -6 10 -9 11 -9 2 0 -8 -8 -5 -20 7 -12 12 -26 17
-36 13 -13 -5 -15 -3 -9 7 6 10 4 12 -8 7 -10 -3 -17 -2 -17 4 0 6 -7 6 -20
-1 -16 -8 -20 -8 -20 3 0 15 -38 16 -61 1 -8 -5 -11 -2 -7 7 4 10 -1 15 -13
16 -10 1 -19 -3 -19 -8 0 -6 -6 -7 -12 -2 -7 4 -24 6 -37 4 -15 -2 -21 1 -17
8 5 8 0 8 -17 2 -14 -5 -28 -6 -33 -2 -15 14 -74 22 -74 10 0 -6 5 -7 12 -3 7
4 8 3 4 -4 -5 -9 -13 -8 -30 3 -21 14 -24 14 -30 0 -4 -12 -10 -14 -25 -5 -11
5 -22 7 -25 2 -2 -4 -23 -7 -45 -6 -23 0 -41 -3 -41 -8 0 -5 -5 -6 -10 -3 -11
7 -76 -12 -97 -28 -9 -6 -13 -5 -13 4 0 11 -2 11 -10 -1 -5 -8 -13 -15 -17
-16 -17 -2 -48 -18 -55 -28 -5 -7 -8 -7 -8 2 0 6 -5 12 -11 12 -5 0 -7 -4 -4
-10 3 -6 -1 -7 -9 -4 -19 7 -20 16 -3 33 10 11 10 13 0 7 -16 -9 -17 10 -3 19
8 5 7 11 -1 21 -9 11 -8 14 2 14 12 0 12 2 0 9 -9 6 -10 10 -2 16 8 4 6 16 -9
40 -21 33 -14 53 13 40 6 -4 4 0 -5 8 -10 8 -15 17 -11 20 3 4 1 7 -6 7 -7 0
-9 5 -4 13 11 16 11 29 1 49 -5 10 -4 19 2 23 6 4 7 12 3 18 -12 20 -12 37 0
37 7 0 5 5 -3 10 -8 5 -10 10 -5 10 6 0 11 9 12 20 1 11 -3 20 -9 20 -6 0 -8
13 -6 30 3 19 0 30 -8 30 -6 0 -14 14 -16 30 -3 22 -1 29 8 26 8 -3 11 0 7 9
-3 8 -9 12 -14 9 -5 -3 -6 1 -3 9 3 8 0 18 -6 22 -15 9 8 37 24 28 6 -3 3 3
-6 14 -20 21 -24 38 -8 28 6 -3 7 1 4 9 -3 9 -10 13 -15 10 -5 -3 -6 2 -3 10
3 9 10 13 15 10 5 -3 6 2 3 10 -3 9 -10 16 -15 16 -5 0 -9 5 -9 11 0 5 5 7 12
3 7 -5 8 -3 2 7 -11 18 -11 49 -1 72 4 9 4 17 -1 17 -4 0 -8 8 -8 18 -2 36
-12 101 -18 111 -4 5 -2 13 4 16 8 5 8 11 0 20 -6 7 -7 16 -2 19 7 4 9 45 2
54 -2 1 -4 7 -5 12 -1 6 -3 11 -4 13 -8 10 -7 75 1 85 8 9 7 11 -7 6 -15 -6
-16 -4 -6 14 8 15 8 22 -2 25 -9 4 -9 6 1 6 10 1 9 5 -3 17 -15 15 -15 18 1
41 9 14 12 23 6 19 -6 -4 -10 22 -11 71 0 50 -5 79 -13 85 -10 6 -9 8 2 8 13
0 13 2 1 9 -13 8 -13 12 0 27 8 10 9 15 2 11 -8 -5 -11 0 -10 13 1 11 6 20 11
20 5 0 6 3 3 6 -4 4 -14 1 -23 -7 -16 -13 -16 -12 -6 7 9 18 8 24 -5 35 -14
12 -16 12 -8 0z m600 -1551 c3 -6 -1 -7 -9 -4 -18 7 -21 14 -7 14 6 0 13 -4
16 -10z m18 -59 c4 -1 7 -6 7 -12 0 -8 -4 -8 -14 0 -10 9 -16 8 -25 -3 -7 -8
-19 -12 -27 -9 -8 3 -14 0 -14 -6 0 -6 5 -10 11 -8 6 1 14 -4 16 -11 4 -10 -1
-10 -22 0 -21 9 -31 9 -46 0 -15 -10 -19 -10 -17 0 3 11 -1 13 -34 17 -9 1 -9
4 2 10 8 6 18 7 22 5 4 -3 8 1 8 8 0 9 3 9 10 -2 8 -13 11 -13 19 -1 5 8 18
12 30 8 12 -3 21 -1 21 4 0 5 10 7 23 5 12 -3 25 -5 30 -5z m41 -8 c4 -5 12
-9 17 -9 5 -1 13 -2 18 -3 5 0 8 -12 7 -26 -1 -21 -3 -23 -12 -10 -7 9 -22 14
-35 11 -13 -2 -32 1 -41 6 -14 7 -16 5 -11 -9 6 -16 5 -16 -10 -4 -13 10 -15
17 -6 27 9 11 15 11 25 3 11 -9 15 -7 20 5 7 17 16 20 28 9z m109 -18 c9 2 17
-1 17 -6 0 -7 -29 -7 -50 1 -3 2 -8 2 -11 2 -3 -1 -6 6 -6 14 0 12 3 12 16 0
9 -7 24 -12 34 -11z m-329 -13 c2 -4 -9 -7 -24 -7 -16 -1 -27 2 -25 5 5 8 44
10 49 2z m-64 -22 c0 -5 -8 -8 -17 -8 -10 0 -26 -3 -35 -7 -10 -4 -18 -3 -18
2 0 11 51 32 63 26 4 -2 7 -8 7 -13z m-85 -10 c3 -5 1 -10 -4 -10 -6 0 -11 5
-11 10 0 6 2 10 4 10 3 0 8 -4 11 -10z m-3235 -14 c0 -2 -7 -6 -15 -10 -8 -3
-15 -1 -15 4 0 6 7 10 15 10 8 0 15 -2 15 -4z m3180 -6 c-8 -5 -22 -9 -30 -9
-10 0 -8 3 5 9 27 12 43 12 25 0z m643 -23 c4 3 7 1 7 -5 0 -14 -13 -16 -24
-4 -4 4 -13 7 -19 7 -7 0 -13 9 -15 20 -4 19 -3 19 20 -3 14 -12 28 -19 31
-15z m-4034 -13 c-14 -17 -23 -19 -13 -2 5 8 2 9 -11 4 -14 -5 -16 -4 -7 7 7
8 8 17 4 22 -4 4 3 2 16 -4 19 -10 21 -15 11 -27z m-61 -9 c-4 -4 -48 -14 -83
-19 -11 -1 -31 -9 -45 -16 -14 -8 -36 -13 -49 -11 -16 2 -21 -1 -16 -10 5 -7
4 -10 -3 -5 -6 3 -13 2 -17 -4 -3 -5 -11 -10 -17 -10 -24 0 41 39 75 45 20 4
37 10 37 14 0 4 12 8 28 9 44 4 61 8 68 15 4 3 11 4 16 1 5 -3 8 -8 6 -9z
m4190 -22 c2 -1 -1 -10 -8 -20 -10 -16 -11 -16 -6 0 4 13 0 17 -20 17 -14 0
-22 4 -19 10 3 6 -1 10 -10 10 -9 0 -14 4 -10 9 3 6 19 3 38 -7 17 -9 34 -18
35 -19z m-3887 10 c13 -17 13 -17 -6 -3 -11 8 -22 16 -24 17 -2 2 0 3 6 3 6 0
17 -8 24 -17z m3974 -13 c-3 -5 -1 -10 6 -10 7 0 10 -3 6 -6 -9 -9 -28 6 -22
17 4 5 8 9 11 9 3 0 2 -4 -1 -10z m-55 -30 c13 -25 13 -25 -8 -6 -12 10 -19
23 -16 28 7 11 7 11 24 -22z m-3898 -20 c-20 -20 -25 -19 -17 2 3 8 12 15 20
15 12 0 11 -4 -3 -17z m3049 3 c13 -17 13 -17 -6 -3 -11 8 -22 16 -24 17 -2 2
0 3 6 3 6 0 17 -8 24 -17z m-3617 -9 c3 -8 2 -12 -4 -9 -6 3 -10 10 -10 16 0
14 7 11 14 -7z m3971 -14 c3 -6 -1 -7 -9 -4 -18 7 -21 14 -7 14 6 0 13 -4 16
-10z m45 -20 c8 -5 11 -10 5 -10 -5 0 -17 5 -25 10 -8 5 -10 10 -5 10 6 0 17
-5 25 -10z m-4107 -17 c-7 -2 -19 -2 -25 0 -7 3 -2 5 12 5 14 0 19 -2 13 -5z
m3748 -11 c-7 -2 -18 1 -23 6 -8 8 -4 9 13 5 13 -4 18 -8 10 -11z m449 6 c0
-4 -7 -8 -15 -8 -8 0 -15 4 -15 8 0 5 7 9 15 9 8 0 15 -4 15 -9z m-4240 -10
c0 -5 -7 -11 -15 -14 -8 -3 -17 -14 -20 -23 -3 -10 -12 -18 -20 -18 -9 0 -14
5 -12 11 3 6 0 20 -6 31 -8 16 -7 18 4 8 15 -15 33 -17 24 -3 -4 6 1 7 11 3
10 -4 15 -2 11 4 -3 5 0 10 8 10 8 0 15 -4 15 -9z m3758 -1 c8 -10 6 -13 -11
-14 -12 0 -16 1 -9 4 6 3 10 9 6 14 -8 14 2 11 14 -4z m67 -7 c-3 -5 -2 -10 4
-10 6 0 15 -9 21 -20 7 -14 7 -20 0 -20 -5 0 -10 6 -10 14 0 8 -7 17 -16 20
-13 5 -12 26 2 26 3 0 2 -4 -1 -10z m75 0 c0 -5 -2 -10 -4 -10 -3 0 -8 5 -11
10 -3 6 -1 10 4 10 6 0 11 -4 11 -10z m22 -35 c3 0 9 -3 13 -7 9 -9 -16 -5
-32 5 -8 5 -13 3 -13 -4 0 -7 -3 -10 -6 -6 -10 10 7 28 19 20 7 -4 15 -8 19
-8z m-3369 -25 c-10 -10 -26 -28 -36 -40 -10 -12 -21 -19 -25 -15 -4 4 -1 10
6 12 6 3 10 9 6 14 -3 5 0 8 7 7 7 -2 13 2 14 7 0 16 29 44 38 38 5 -3 0 -13
-10 -23z m3421 -2 c-4 -6 -10 -5 -15 3 -14 22 -10 33 6 19 8 -7 12 -17 9 -22z
m-3513 -1 c-10 -9 -11 -8 -5 6 3 10 9 15 12 12 3 -3 0 -11 -7 -18z m3629 9 c0
-2 -7 -7 -16 -10 -8 -3 -12 -2 -9 4 6 10 25 14 25 6z m350 0 c0 -3 -4 -8 -10
-11 -5 -3 -10 -1 -10 4 0 6 5 11 10 11 6 0 10 -2 10 -4z m-593 -21 c0 -8 -4
-12 -9 -9 -5 3 -6 10 -3 15 9 13 12 11 12 -6z m-3266 -18 c-10 -9 -11 -8 -5 6
3 10 9 15 12 12 3 -3 0 -11 -7 -18z m3322 1 c-4 -19 -3 -20 6 -8 12 17 14 10
5 -14 -3 -9 -10 -16 -16 -16 -5 0 -7 4 -3 9 3 5 -4 12 -15 16 -11 3 -20 11
-20 17 0 7 5 7 14 -1 10 -9 15 -8 20 4 8 23 15 18 9 -7z m-3483 -33 c0 -22
-37 -38 -44 -19 -3 8 -2 12 4 9 6 -3 10 -1 10 5 0 6 5 8 10 5 6 -3 10 -1 10 4
0 6 2 11 5 11 3 0 5 -7 5 -15z m3823 -38 c9 -8 17 -20 17 -28 -1 -10 -4 -9
-14 4 -7 9 -18 17 -25 17 -6 0 -11 5 -11 10 0 6 -8 10 -18 10 -11 0 -18 8 -19
20 l-2 21 27 -21 c15 -11 35 -26 45 -33z m-4397 15 c-17 -16 -18 -16 -5 5 7
12 15 20 18 17 3 -2 -3 -12 -13 -22z m279 8 c3 -6 -1 -7 -9 -4 -18 7 -21 14
-7 14 6 0 13 -4 16 -10z m401 -32 c-9 -12 -16 -19 -16 -15 0 11 24 47 28 42 2
-2 -3 -14 -12 -27z m-186 -7 c0 -4 -7 -16 -16 -27 -14 -18 -15 -18 -4 4 6 12
8 28 4 34 -4 7 -3 8 4 4 7 -4 12 -11 12 -15z m-184 -3 c4 -7 4 -10 0 -6 -12
10 -48 -31 -39 -45 4 -7 0 -7 -10 2 -15 12 -17 11 -17 -2 0 -9 -8 -22 -19 -29
-18 -13 -21 -18 -21 -39 0 -5 -4 -8 -9 -4 -5 3 -12 -3 -16 -14 -3 -11 -13 -25
-22 -33 -14 -11 -15 -11 -5 7 6 11 26 43 46 70 71 101 96 121 112 93z m225 -1
c-6 -8 -8 -17 -4 -20 3 -4 2 -7 -4 -7 -6 0 -14 7 -17 16 -3 8 -2 12 3 9 5 -3
12 -1 16 5 3 5 9 10 12 10 3 0 0 -6 -6 -13z m-341 -37 c0 -5 -5 -10 -11 -10
-5 0 -7 5 -4 10 3 6 8 10 11 10 2 0 4 -4 4 -10z m286 -9 c13 11 14 9 3 -14 -7
-15 -16 -27 -21 -27 -5 0 -6 -6 -2 -12 4 -7 -2 -4 -14 6 -19 16 -22 17 -22 3
0 -8 5 -17 12 -19 8 -3 6 -14 -7 -36 -10 -17 -22 -29 -26 -27 -10 7 -32 -22
-25 -34 3 -5 -1 -12 -10 -15 -8 -3 -12 -10 -9 -16 3 -5 -1 -10 -10 -10 -10 0
-13 -5 -9 -12 4 -7 4 -10 -1 -6 -4 4 -15 2 -24 -4 -9 -7 -6 -1 5 12 29 34 66
109 59 120 -3 5 4 14 15 20 12 6 19 17 17 23 -6 20 16 36 36 26 11 -6 17 -6
17 1 0 5 -4 10 -10 10 -5 0 -10 8 -10 18 1 16 1 16 11 -1 9 -15 13 -16 25 -6z
m3984 13 c0 -8 -19 -13 -24 -6 -3 5 1 9 9 9 8 0 15 -2 15 -3z m-3833 -19 c0
-8 -4 -12 -9 -9 -5 3 -6 10 -3 15 9 13 12 11 12 -6z m3904 -77 c16 -29 2 -21
-22 15 -17 23 -18 28 -6 18 10 -8 23 -23 28 -33z m-4621 28 c0 -2 -7 -9 -15
-16 -13 -11 -14 -10 -9 4 5 14 24 23 24 12z m715 -26 c-3 -5 -1 -10 6 -10 7 0
10 -3 6 -6 -9 -9 -28 6 -22 17 4 5 8 9 11 9 3 0 2 -4 -1 -10z m3980 -48 c-3
-3 -11 0 -18 7 -9 10 -8 11 6 5 10 -3 15 -9 12 -12z m-4478 -64 c-3 -8 -6 -5
-6 6 -1 11 2 17 5 13 3 -3 4 -12 1 -19z m498 -108 c3 -5 1 -10 -4 -10 -6 0
-11 5 -11 10 0 6 2 10 4 10 3 0 8 -4 11 -10z m0 -131 c-4 -5 -12 -9 -18 -8 -9
0 -8 2 1 6 6 2 9 10 6 15 -4 7 -2 8 5 4 6 -4 9 -12 6 -17z m2035 -303 c0 -3
-4 -8 -10 -11 -5 -3 -10 -1 -10 4 0 6 5 11 10 11 6 0 10 -2 10 -4z"/>
<path d="M4721 2186 c-10 -11 -9 -14 1 -12 14 2 23 15 15 22 -2 2 -10 -2 -16
-10z"/>
<path d="M750 1615 c0 -9 -4 -14 -9 -11 -5 3 -11 -3 -14 -13 -6 -24 14 -18 31
9 7 12 8 21 2 25 -6 3 -10 -1 -10 -10z"/>
<path d="M3636 3435 c-11 -8 -15 -15 -9 -15 6 0 16 7 23 15 16 19 11 19 -14 0z"/>
<path d="M3550 3279 c0 -5 5 -7 10 -4 6 3 10 8 10 11 0 2 -4 4 -10 4 -5 0 -10
-5 -10 -11z"/>
<path d="M4190 2820 c0 -5 5 -10 11 -10 5 0 7 5 4 10 -3 6 -8 10 -11 10 -2 0
-4 -4 -4 -10z"/>
<path d="M5217 2059 c7 -25 20 -33 29 -18 4 8 3 9 -4 5 -7 -4 -12 -1 -12 9 0
10 5 13 13 9 6 -4 8 -3 4 1 -15 18 -35 13 -30 -6z"/>
<path d="M5207 2013 c-5 -10 30 -43 37 -35 3 3 6 -2 6 -11 0 -23 -13 -21 -35
3 -10 11 -22 17 -26 14 -5 -3 -6 3 -2 12 4 12 3 15 -5 10 -15 -9 -16 -36 -2
-36 6 0 22 -11 35 -25 l25 -24 16 30 c15 29 14 31 -7 50 -24 20 -35 24 -42 12z"/>
<path d="M5126 1964 c-3 -8 -2 -12 3 -9 6 3 14 -3 20 -12 6 -10 11 -14 11 -9
0 5 9 -1 20 -14 11 -13 20 -18 20 -12 0 7 0 14 0 17 0 3 -2 4 -4 3 -2 -2 -16
9 -30 25 -29 31 -32 32 -40 11z"/>
<path d="M4545 1960 c-3 -5 -1 -10 4 -10 6 0 11 5 11 10 0 6 -2 10 -4 10 -3 0
-8 -4 -11 -10z"/>
<path d="M5262 1942 c-15 -32 -15 -45 -1 -36 8 4 9 -1 4 -16 -6 -19 -4 -22 10
-16 13 4 16 2 12 -9 -4 -8 0 -21 8 -29 8 -7 12 -16 10 -18 -3 -3 2 -5 10 -5
17 0 20 13 5 22 -6 4 -7 11 -4 17 4 7 2 8 -4 4 -7 -4 -12 -1 -12 9 0 9 -9 25
-20 37 -10 12 -17 26 -13 31 4 6 11 3 18 -6 7 -9 15 -14 18 -10 4 3 7 -2 7
-11 0 -12 5 -16 14 -13 10 4 13 1 10 -7 -3 -7 2 -13 10 -13 13 0 13 4 -2 29
-15 26 -25 33 -46 29 -5 -1 -6 5 -3 13 10 26 -18 24 -31 -2z"/>
<path d="M4082 1950 c2 -8 -3 -14 -9 -12 -7 1 -13 -4 -13 -11 0 -8 13 -12 35
-11 19 1 35 -2 35 -6 0 -4 11 -7 25 -6 22 1 38 26 17 26 -4 0 -14 -6 -21 -12
-10 -11 -11 -10 -6 3 4 10 2 20 -4 24 -6 3 -14 -1 -17 -9 -5 -13 -9 -12 -25 7
-12 14 -18 17 -17 7z"/>
<path d="M4465 1826 c-10 -15 -15 -29 -11 -33 3 -3 6 -1 6 5 0 18 37 14 44 -4
4 -9 13 -14 21 -10 10 3 39 -19 82 -62 38 -37 72 -66 77 -64 5 2 6 -4 3 -13
-4 -8 -2 -15 3 -15 6 0 10 5 10 12 0 6 3 8 7 4 5 -4 -1 -14 -11 -22 -17 -12
-18 -14 -3 -14 9 0 17 -4 17 -10 0 -14 27 -12 33 3 3 6 6 2 6 -11 1 -12 -6
-25 -15 -29 -15 -6 -15 -7 1 -19 9 -7 14 -17 11 -22 -3 -6 0 -13 6 -15 7 -3 9
-6 3 -6 -5 -1 -9 -18 -8 -38 1 -21 2 -46 2 -55 1 -10 9 -16 21 -15 20 1 29 17
10 17 -6 0 -6 9 0 26 10 26 5 48 -8 40 -6 -4 -7 14 -3 57 1 5 6 5 11 2 6 -4 7
-11 4 -17 -4 -6 -2 -8 3 -5 6 4 13 0 17 -8 3 -8 1 -15 -5 -15 -6 0 -3 -7 5
-16 10 -9 14 -24 10 -38 -4 -17 -1 -22 18 -23 13 0 17 1 11 4 -7 3 -13 14 -13
26 0 12 -9 40 -19 62 -10 22 -16 46 -13 54 3 9 0 11 -8 6 -9 -5 -11 -4 -6 4
10 16 26 4 26 -19 0 -13 7 -18 20 -17 20 1 29 17 9 17 -5 0 -7 5 -4 10 3 6 1
10 -4 10 -6 0 -11 6 -11 14 0 8 -7 17 -16 20 -8 3 -12 10 -9 16 3 5 -1 10 -9
10 -9 0 -16 5 -16 12 0 6 -3 9 -6 6 -7 -8 -42 25 -37 35 2 4 -4 7 -14 7 -11 0
-28 7 -39 16 -10 8 -12 13 -4 9 8 -4 6 1 -5 9 -11 9 -25 14 -33 11 -7 -2 -10
0 -7 5 3 6 2 10 -2 10 -5 0 -31 20 -57 45 -27 25 -53 42 -58 39 -6 -4 -14 -1
-18 6 -6 9 -13 5 -25 -14z m225 -152 c0 -2 -7 -4 -15 -4 -8 0 -15 4 -15 10 0
5 7 7 15 4 8 -4 15 -8 15 -10z m40 -64 c0 -5 -2 -10 -4 -10 -3 0 -8 5 -11 10
-3 6 -1 10 4 10 6 0 11 -4 11 -10z m44 -30 c-6 -6 -10 -3 -10 10 0 13 4 16 10
10 7 -7 7 -13 0 -20z"/>
<path d="M660 1760 c0 -5 5 -10 11 -10 5 0 7 5 4 10 -3 6 -8 10 -11 10 -2 0
-4 -4 -4 -10z"/>
<path d="M4496 1753 c-4 -10 -2 -19 3 -21 6 -2 8 -9 5 -14 -4 -6 -3 -8 3 -5 5
3 17 -3 26 -14 10 -11 23 -17 30 -13 6 5 5 -1 -3 -11 -14 -17 -13 -18 3 -12
12 5 16 3 11 -5 -5 -8 -2 -9 9 -5 9 3 19 1 23 -5 5 -7 2 -8 -6 -3 -10 6 -12 3
-8 -13 7 -24 -9 -30 -18 -8 -3 8 -12 12 -20 9 -19 -7 -18 -23 1 -23 13 0 48
-45 58 -75 2 -6 12 -4 23 5 17 14 18 13 7 -1 -10 -12 -10 -18 0 -29 10 -12 9
-12 -5 -1 -22 16 -24 8 -3 -13 18 -17 26 -94 11 -100 -7 -3 -7 -5 1 -5 6 -1 9
-10 6 -23 -4 -19 -3 -20 6 -8 6 8 11 10 11 4 0 -6 -3 -14 -7 -17 -3 -4 -7 -30
-9 -59 -2 -29 0 -47 2 -40 3 6 9 10 14 7 4 -3 10 4 13 15 3 13 1 18 -6 14 -7
-3 -4 1 6 9 14 11 15 16 5 20 -8 4 -9 8 -3 14 13 11 15 63 2 63 -6 0 -6 5 1
13 8 9 9 103 1 127 -1 3 -1 8 0 13 0 4 -3 7 -9 7 -5 0 -10 9 -10 20 0 11 -5
20 -11 20 -5 0 -7 5 -4 10 3 6 1 10 -4 10 -6 0 -10 6 -8 13 1 6 -5 11 -13 9
-8 -2 -12 0 -7 4 4 4 0 16 -10 26 -9 10 -13 18 -8 18 4 0 -3 8 -16 19 -13 10
-28 17 -34 15 -6 -3 -11 7 -10 23 0 21 -5 29 -21 31 -13 2 -24 -4 -28 -15z
m44 -13 c0 -5 -7 -7 -15 -4 -8 4 -15 8 -15 10 0 2 7 4 15 4 8 0 15 -4 15 -10z
m83 -175 c-3 -9 -8 -14 -10 -11 -3 3 -2 9 2 15 9 16 15 13 8 -4z"/>
<path d="M230 1720 c0 -5 5 -10 10 -10 6 0 10 5 10 10 0 6 -4 10 -10 10 -5 0
-10 -4 -10 -10z"/>
<path d="M4450 1719 c0 -5 5 -7 10 -4 6 3 10 8 10 11 0 2 -4 4 -10 4 -5 0 -10
-5 -10 -11z"/>
<path d="M5097 1714 c-12 -12 -8 -26 5 -18 8 5 9 2 5 -9 -3 -9 -3 -16 1 -16
19 3 25 -2 12 -11 -13 -8 -12 -10 4 -10 11 0 17 -3 13 -6 -12 -12 31 -47 50
-40 17 7 17 8 -3 19 -12 7 -19 18 -16 26 3 8 0 11 -7 7 -6 -4 -11 -3 -11 2 0
15 -46 63 -53 56z"/>
<path d="M4510 1683 c0 -5 10 -18 23 -29 l22 -19 -20 25 c-11 14 -21 27 -22
29 -2 2 -3 0 -3 -6z"/>
<path d="M4999 1628 c-4 -12 -5 -57 0 -53 6 6 10 55 4 55 -1 0 -3 -1 -4 -2z"/>
<path d="M630 1558 c-11 -24 -14 -36 -7 -28 15 17 39 70 32 70 -2 0 -14 -19
-25 -42z"/>
<path d="M4550 1596 c0 -2 7 -7 16 -10 8 -3 12 -2 9 4 -6 10 -25 14 -25 6z"/>
<path d="M5185 1589 c-4 -6 -5 -13 -2 -16 7 -7 27 6 27 18 0 12 -17 12 -25 -2z"/>
<path d="M5204 1566 c-3 -9 -1 -22 5 -30 6 -7 8 -16 4 -19 -3 -4 1 -7 10 -7 9
0 19 5 23 12 5 7 3 8 -7 3 -11 -7 -12 -6 -3 6 9 11 7 18 -7 33 -17 17 -19 17
-25 2z"/>
<path d="M374 1525 c-4 -8 -11 -12 -18 -8 -7 4 -7 1 1 -7 10 -11 9 -16 -2 -24
-9 -6 -17 -22 -20 -35 -2 -14 -9 -29 -15 -35 -12 -12 -14 -46 -2 -46 12 0 37
34 37 50 0 8 -4 21 -9 29 -6 10 -5 12 3 7 8 -5 14 0 18 13 3 12 10 21 15 21 5
0 7 4 3 9 -3 5 2 17 11 25 14 15 14 16 -1 16 -8 0 -18 -7 -21 -15z"/>
<path d="M4920 1536 c0 -2 7 -7 16 -10 8 -3 12 -2 9 4 -6 10 -25 14 -25 6z"/>
<path d="M594 1496 c18 -14 15 -20 -6 -17 -4 0 -5 -5 -2 -12 3 -8 -5 -19 -18
-25 -13 -6 -17 -11 -10 -11 7 -1 10 -6 7 -11 -4 -6 -11 -8 -16 -5 -5 3 -6 -2
-2 -12 5 -15 3 -16 -8 -5 -7 6 -17 12 -22 12 -5 0 1 -9 14 -20 13 -10 18 -19
12 -20 -7 0 -13 -5 -13 -10 0 -6 11 -3 24 7 13 10 22 21 20 24 -6 10 31 80 38
73 4 -3 5 2 4 11 -1 10 -11 22 -22 27 -18 9 -18 9 0 -6z"/>
<path d="M4990 1506 c0 -2 7 -7 16 -10 8 -3 12 -2 9 4 -6 10 -25 14 -25 6z"/>
<path d="M4836 1478 c3 -5 10 -6 15 -3 13 9 11 12 -6 12 -8 0 -12 -4 -9 -9z"/>
<path d="M4932 1438 c2 -14 9 -32 15 -39 6 -8 9 -22 8 -31 -2 -10 2 -16 8 -15
8 1 11 -9 9 -26 -2 -18 1 -26 7 -22 6 3 12 -1 12 -9 3 -29 4 -34 12 -40 4 -3
5 -3 2 1 -3 3 3 15 12 25 16 18 16 19 -5 25 -16 4 -22 13 -22 34 0 16 -4 29
-10 29 -5 0 -10 9 -10 20 0 12 -7 20 -16 20 -13 0 -14 3 -5 14 9 10 8 16 -4
26 -14 12 -16 10 -13 -12z m88 -142 c0 -3 -4 -8 -10 -11 -5 -3 -10 -1 -10 4 0
6 5 11 10 11 6 0 10 -2 10 -4z"/>
<path d="M4866 1428 c3 -4 9 -8 15 -8 5 0 9 4 9 8 0 5 -7 9 -15 9 -8 0 -12 -4
-9 -9z"/>
<path d="M4877 1397 c-3 -8 1 -14 9 -14 7 0 10 5 7 10 -4 6 1 8 11 4 10 -4 15
-3 11 3 -9 14 -32 12 -38 -3z"/>
<path d="M4814 1378 c-3 -4 0 -8 7 -8 6 0 9 -8 6 -19 -3 -12 1 -22 9 -25 10
-4 14 4 14 28 0 23 -5 33 -15 33 -9 0 -18 -4 -21 -9z"/>
<path d="M269 1363 c0 -5 -2 -16 -4 -26 -2 -10 1 -15 8 -11 7 3 5 -1 -4 -8
-18 -14 -11 -49 12 -64 8 -5 11 -2 6 8 -3 9 0 21 6 27 9 9 7 11 -8 6 -17 -6
-18 -5 -5 7 21 18 25 68 5 68 -8 0 -15 -3 -16 -7z"/>
<path d="M5044 1327 c1 -7 5 -18 9 -24 5 -7 5 -13 1 -13 -4 0 1 -7 12 -16 10
-8 14 -13 7 -10 -6 4 -14 2 -18 -4 -3 -6 3 -10 15 -10 14 0 20 5 16 13 -3 6
-9 20 -12 30 -4 9 -11 17 -18 17 -7 0 -6 4 2 9 11 7 11 9 -1 14 -8 3 -14 0
-13 -6z"/>
<path d="M256 1245 c4 -8 13 -15 21 -15 13 0 13 3 3 15 -7 8 -16 15 -21 15 -5
0 -6 -7 -3 -15z"/>
</g>
</svg>
